<svg width="79" height="57" viewBox="0 0 79 57" fill="none" xmlns="http://www.w3.org/2000/svg">
<rect x="0.5" y="18.5" width="78" height="38" rx="19" fill="white"/>
<path d="M57.5 49.5C57.5 43.9772 61.9772 39.5 67.5 39.5C67.5 45.0228 63.0228 49.5 57.5 49.5Z" fill="black"/>
<path d="M21.5 49.5C21.5 43.9772 17.0228 39.5 11.5 39.5C11.5 45.0228 15.9772 49.5 21.5 49.5Z" fill="black"/>
<path d="M72.5 0.5L54.5 14.5C54.5 14.5 62.0454 13.8984 66 15C68.7773 15.7737 72.5 18.5 72.5 18.5L72.5 0.5Z" fill="white"/>
<path d="M6.5 0.5L24.5 14.5C24.5 14.5 16.9546 13.8984 13 15C10.2227 15.7737 6.5 18.5 6.5 18.5L6.5 0.5Z" fill="white"/>
</svg>
