<svg width="34" height="51" viewBox="0 0 34 51" fill="none" xmlns="http://www.w3.org/2000/svg">
<path fill-rule="evenodd" clip-rule="evenodd" d="M17 51C7.61116 51 0 43.3888 0 34V1.95937C0 1.44146 0.690697 1.2652 0.938861 1.71978L12.1222 22.2052C12.2396 22.4201 12.4949 22.5175 12.7283 22.4436C14.0777 22.0165 15.5124 21.7864 17 21.7864C18.4876 21.7864 19.9223 22.0165 21.2717 22.4436C21.5051 22.5175 21.7604 22.4201 21.8778 22.2052L33.0611 1.71978C33.3093 1.2652 34 1.44146 34 1.95937V34C34 43.3888 26.3888 51 17 51Z" fill="white"/>
<path d="M21 45C21 39.4772 25.4772 35 31 35C31 40.5228 26.5228 45 21 45Z" fill="#1B191C"/>
<path d="M13 45C13 39.4772 8.52285 35 3 35C3 40.5228 7.47715 45 13 45Z" fill="#1B191C"/>
</svg>
